<svg width="60" height="60" viewBox="0 0 60 60" fill="none" xmlns="http://www.w3.org/2000/svg">
<rect width="60" height="60" rx="20" fill="#FFEEA6"/>
<path d="M29.4834 22C29.2799 22.0002 29.0422 22.1481 28.9523 22.3306L27.7858 24.699L14.3554 24.6417C13.8837 24.6338 13.8809 25.3443 14.3527 25.3398L27.4429 25.3958L25.551 29.2374H14.3643C13.8922 29.2308 13.8922 29.9421 14.3643 29.9355H25.2067L23.3162 33.775H14.354C13.882 33.7684 13.882 34.4798 14.354 34.4731H22.972L21.7141 37.0276C21.6243 37.2101 21.7163 37.358 21.9194 37.3583H36.913C37.1165 37.3581 37.3542 37.2101 37.4441 37.0276L44.6822 22.3306C44.772 22.1482 44.68 22.0003 44.4769 22H29.4834Z" fill="#B89500"/>
</svg>
