<svg width="100" height="100" viewBox="0 0 100 100" fill="none" xmlns="http://www.w3.org/2000/svg">
<circle cx="50" cy="50" r="50" fill="#F0EEFF"/>
<path d="M67.8125 33H63.0625C62.7476 33 62.4455 33.1251 62.2228 33.3478C62.0001 33.5705 61.875 33.8726 61.875 34.1875V35.375H53.5625V34.1875C53.5625 33.8726 53.4374 33.5705 53.2147 33.3478C52.992 33.1251 52.6899 33 52.375 33H47.625C47.3101 33 47.008 33.1251 46.7853 33.3478C46.5626 33.5705 46.4375 33.8726 46.4375 34.1875V35.375H38.125V34.1875C38.125 33.8726 37.9999 33.5705 37.7772 33.3478C37.5545 33.1251 37.2524 33 36.9375 33H32.1875C31.8726 33 31.5705 33.1251 31.3478 33.3478C31.1251 33.5705 31 33.8726 31 34.1875V38.9375C31 39.2524 31.1251 39.5545 31.3478 39.7772C31.5705 39.9999 31.8726 40.125 32.1875 40.125H36.9375C37.2524 40.125 37.5545 39.9999 37.7772 39.7772C37.9999 39.5545 38.125 39.2524 38.125 38.9375V37.75H46.4375V38.9375C46.4375 39.2524 46.5626 39.5545 46.7853 39.7772C47.008 39.9999 47.3101 40.125 47.625 40.125H52.375C52.6899 40.125 52.992 39.9999 53.2147 39.7772C53.4374 39.5545 53.5625 39.2524 53.5625 38.9375V38.1063C56.9112 38.9375 62.6112 41.9181 63.0625 52H61.875C61.5601 52 61.258 52.1251 61.0353 52.3478C60.8126 52.5705 60.6875 52.8726 60.6875 53.1875V57.9375C60.6875 58.2524 60.8126 58.5545 61.0353 58.7772C61.258 58.9999 61.5601 59.125 61.875 59.125H66.625C66.9399 59.125 67.242 58.9999 67.4647 58.7772C67.6874 58.5545 67.8125 58.2524 67.8125 57.9375V53.1875C67.8125 52.8726 67.6874 52.5705 67.4647 52.3478C67.242 52.1251 66.9399 52 66.625 52H65.4375C65.1406 44.0675 61.875 39.9113 58.5025 37.75H61.875V38.9375C61.875 39.2524 62.0001 39.5545 62.2228 39.7772C62.4455 39.9999 62.7476 40.125 63.0625 40.125H67.8125C68.1274 40.125 68.4295 39.9999 68.6522 39.7772C68.8749 39.5545 69 39.2524 69 38.9375V34.1875C69 33.8726 68.8749 33.5705 68.6522 33.3478C68.4295 33.1251 68.1274 33 67.8125 33ZM35.75 37.75H33.375V35.375H35.75V37.75ZM51.1875 37.75H48.8125V35.375H51.1875V37.75ZM63.0625 54.375H65.4375V56.75H63.0625V54.375ZM66.625 37.75H64.25V35.375H66.625V37.75Z" fill="#6854FC"/>
<path d="M42.7443 41.9657C42.6458 41.768 42.4942 41.6018 42.3065 41.4856C42.1187 41.3694 41.9023 41.3079 41.6815 41.3079C41.4607 41.3079 41.2443 41.3694 41.0566 41.4856C40.8688 41.6018 40.7172 41.768 40.6187 41.9657L33.4937 56.2157C33.3838 56.4383 33.3465 56.6898 33.387 56.9347C33.4274 57.1797 33.5437 57.4058 33.7193 57.5813L35.3343 59.1963C35.107 59.2812 34.9112 59.4337 34.7732 59.6333C34.6352 59.8328 34.5617 60.0699 34.5625 60.3125V62.6875C34.5625 63.0025 34.6876 63.3045 34.9103 63.5272C35.133 63.7499 35.435 63.875 35.75 63.875H36.9375V67.4375H39.3125V63.875H44.0625V67.4375H46.4375V63.875H47.625C47.9399 63.875 48.2419 63.7499 48.4646 63.5272C48.6873 63.3045 48.8125 63.0025 48.8125 62.6875V60.3125C48.8099 60.0705 48.7335 59.8351 48.5934 59.6377C48.4534 59.4403 48.2563 59.2904 48.0287 59.2082L49.6437 57.5932C49.8194 57.4177 49.9356 57.1916 49.9761 56.9466C50.0165 56.7017 49.9792 56.4502 49.8693 56.2275L42.7443 41.9657ZM44.7631 59.125H38.6118L35.9993 56.5125L40.5 47.535V54.375H42.875V47.535L47.3637 56.5244L44.7631 59.125Z" fill="#6854FC"/>
</svg>
