<svg width="65" height="65" viewBox="0 0 65 65" fill="none" xmlns="http://www.w3.org/2000/svg">
<g clip-path="url(#clip0_179_1246)">
<path d="M33.0003 19.667C36.623 19.667 37.075 19.6803 38.4963 19.747C39.9163 19.8137 40.883 20.0363 41.7337 20.367C42.6137 20.7057 43.355 21.1643 44.0963 21.9043C44.7743 22.5709 45.2989 23.3771 45.6337 24.267C45.963 25.1163 46.187 26.0843 46.2537 27.5043C46.3163 28.9257 46.3337 29.3777 46.3337 33.0003C46.3337 36.623 46.3203 37.075 46.2537 38.4963C46.187 39.9163 45.963 40.883 45.6337 41.7337C45.2999 42.624 44.7752 43.4305 44.0963 44.0963C43.4296 44.7741 42.6234 45.2987 41.7337 45.6337C40.8843 45.963 39.9163 46.187 38.4963 46.2537C37.075 46.3163 36.623 46.3337 33.0003 46.3337C29.3777 46.3337 28.9257 46.3203 27.5043 46.2537C26.0843 46.187 25.1177 45.963 24.267 45.6337C23.3768 45.2996 22.5704 44.7749 21.9043 44.0963C21.2262 43.4299 20.7016 42.6236 20.367 41.7337C20.0363 40.8843 19.8137 39.9163 19.747 38.4963C19.6843 37.075 19.667 36.623 19.667 33.0003C19.667 29.3777 19.6803 28.9257 19.747 27.5043C19.8137 26.083 20.0363 25.1177 20.367 24.267C20.7006 23.3766 21.2254 22.5701 21.9043 21.9043C22.5706 21.226 23.3769 20.7013 24.267 20.367C25.1177 20.0363 26.083 19.8137 27.5043 19.747C28.9257 19.6843 29.3777 19.667 33.0003 19.667ZM33.0003 26.3337C31.2322 26.3337 29.5365 27.036 28.2863 28.2863C27.036 29.5365 26.3337 31.2322 26.3337 33.0003C26.3337 34.7684 27.036 36.4641 28.2863 37.7144C29.5365 38.9646 31.2322 39.667 33.0003 39.667C34.7684 39.667 36.4641 38.9646 37.7144 37.7144C38.9646 36.4641 39.667 34.7684 39.667 33.0003C39.667 31.2322 38.9646 29.5365 37.7144 28.2863C36.4641 27.036 34.7684 26.3337 33.0003 26.3337ZM41.667 26.0003C41.667 25.5583 41.4914 25.1344 41.1788 24.8218C40.8663 24.5093 40.4424 24.3337 40.0003 24.3337C39.5583 24.3337 39.1344 24.5093 38.8218 24.8218C38.5093 25.1344 38.3337 25.5583 38.3337 26.0003C38.3337 26.4424 38.5093 26.8663 38.8218 27.1788C39.1344 27.4914 39.5583 27.667 40.0003 27.667C40.4424 27.667 40.8663 27.4914 41.1788 27.1788C41.4914 26.8663 41.667 26.4424 41.667 26.0003ZM33.0003 29.0003C34.0612 29.0003 35.0786 29.4218 35.8288 30.1719C36.5789 30.922 37.0003 31.9395 37.0003 33.0003C37.0003 34.0612 36.5789 35.0786 35.8288 35.8288C35.0786 36.5789 34.0612 37.0003 33.0003 37.0003C31.9395 37.0003 30.922 36.5789 30.1719 35.8288C29.4218 35.0786 29.0003 34.0612 29.0003 33.0003C29.0003 31.9395 29.4218 30.922 30.1719 30.1719C30.922 29.4218 31.9395 29.0003 33.0003 29.0003Z" fill="white"/>
</g>
<rect opacity="0.1" width="65" height="65" rx="20" fill="#F2F2F2"/>
<defs>
<clipPath id="clip0_179_1246">
<rect width="32" height="32" fill="white" transform="translate(17 17)"/>
</clipPath>
</defs>
</svg>
