<svg width="65" height="65" viewBox="0 0 65 65" fill="none" xmlns="http://www.w3.org/2000/svg">
<g clip-path="url(#clip0_179_1248)">
<path d="M26.2533 23.667C26.2529 24.3743 25.9716 25.0524 25.4713 25.5523C24.9709 26.0521 24.2925 26.3327 23.5853 26.3324C22.878 26.332 22.1999 26.0507 21.7 25.5504C21.2002 25.05 20.9196 24.3716 20.9199 23.6644C20.9203 22.9571 21.2016 22.279 21.7019 21.7791C22.2023 21.2793 22.8807 20.9987 23.5879 20.999C24.2952 20.9994 24.9733 21.2807 25.4732 21.781C25.973 22.2814 26.2536 22.9598 26.2533 23.667ZM26.3333 28.307H20.9999V45.0004H26.3333V28.307ZM34.7599 28.307H29.4533V45.0004H34.7066V36.2404C34.7066 31.3604 41.0666 30.907 41.0666 36.2404V45.0004H46.3333V34.427C46.3333 26.2004 36.9199 26.507 34.7066 30.547L34.7599 28.307Z" fill="white"/>
</g>
<rect opacity="0.1" width="65" height="65" rx="20" fill="#F2F2F2"/>
<defs>
<clipPath id="clip0_179_1248">
<rect width="32" height="32" fill="white" transform="translate(17 17)"/>
</clipPath>
</defs>
</svg>
