<svg width="100" height="100" viewBox="0 0 100 100" fill="none" xmlns="http://www.w3.org/2000/svg">
<circle cx="50" cy="50" r="50" fill="#F0EEFF"/>
<path d="M52.9949 41.3301V33.3379C52.9949 32.9225 52.8094 32.5509 52.5172 32.306C52.4527 32.2536 52.3838 32.2055 52.3111 32.1618C52.1256 32.0612 51.9105 32 51.6824 32H33.3124C32.5895 32 32 32.599 32 33.3379V66.6665C32 67.405 32.5895 68 33.3124 68H51.6824C52.4096 68 52.9953 67.4054 52.9953 66.6665V56.8642H51.1364V61.4987H33.8589V34.1686H51.1359V41.3301H52.9949ZM42.4953 62.666C43.5409 62.666 44.3843 63.5273 44.3843 64.5858C44.3843 65.6439 43.5409 66.5008 42.4953 66.5008C41.4539 66.5008 40.6105 65.6439 40.6105 64.5858C40.6105 63.5273 41.4539 62.666 42.4953 62.666Z" fill="#6854FC"/>
<path d="M46.3508 47.8316V53.782C46.3508 54.3019 45.9377 54.726 45.4257 54.726H39.5691C39.0571 54.726 38.6396 54.3019 38.6396 53.782V47.8316C38.6396 47.3113 39.0571 46.8872 39.5691 46.8872H45.4257C45.9377 46.8872 46.3508 47.3113 46.3508 47.8316Z" fill="#6854FC"/>
<path d="M68.0006 38.2959V46.1132C68.0006 46.7997 67.4537 47.3549 66.7828 47.3549H62.7766V43.8616C62.7766 42.4669 61.6578 41.3302 60.2851 41.3302H57.8711V38.2959C57.8711 37.6139 58.4176 37.0586 59.0889 37.0586H66.7828C67.4541 37.0586 68.0006 37.6139 68.0006 38.2959Z" fill="#6854FC"/>
<path d="M61.9154 43.8616V51.95H58.9849C57.9995 51.95 57.1992 52.7676 57.1992 53.7688V55.9899H49.9785C49.0749 55.9899 48.3477 55.251 48.3477 54.3328V43.8616C48.3477 42.9478 49.0749 42.2046 49.9785 42.2046H60.2845C61.1838 42.2046 61.9154 42.9478 61.9154 43.8616Z" fill="#6854FC"/>
<path d="M65.7664 53.7686V59.719C65.7664 60.2393 65.3533 60.6634 64.8413 60.6634H58.9847C58.4727 60.6634 58.0596 60.2393 58.0596 59.719V53.7686C58.0596 53.2483 58.4727 52.8242 58.9847 52.8242H64.8413C65.3533 52.8242 65.7664 53.2483 65.7664 53.7686Z" fill="#6854FC"/>
</svg>
