<svg width="100" height="100" viewBox="0 0 100 100" fill="none" xmlns="http://www.w3.org/2000/svg">
<circle cx="50" cy="50" r="50" fill="#F0EEFF"/>
<path d="M66.8657 56.2306C68.3791 52.2146 68.3791 47.7851 66.8657 43.7691C66.8441 43.6876 66.8149 43.6084 66.7784 43.5324C65.4711 40.1422 63.1691 37.2266 60.1746 35.1684C57.1802 33.1103 53.6334 32.0058 49.9998 32H49.9915C46.3554 32.0077 42.8068 33.1155 39.8121 35.1778C36.8174 37.2401 34.5168 40.1603 33.2129 43.5545C33.1864 43.6128 33.1642 43.673 33.1464 43.7345C31.6179 47.7716 31.6179 52.2281 33.1464 56.2652C33.1642 56.3267 33.1864 56.3869 33.2129 56.4452C34.5114 59.8426 36.8102 62.7661 39.8056 64.8293C42.801 66.8924 46.3518 67.9981 49.989 68.0002C53.6261 68.0023 57.1783 66.9007 60.176 64.841C63.1738 62.7813 65.476 59.8605 66.7784 56.4646C66.8147 56.3895 66.8439 56.3111 66.8657 56.2306ZM45.3406 54.4583C44.7092 51.5195 44.7092 48.4802 45.3406 45.5414H54.659C55.2904 48.4802 55.2904 51.5195 54.659 54.4583H45.3406ZM53.9002 57.2275C53.0029 59.8409 51.6855 62.2906 49.9998 64.4801C48.3165 62.2899 47.001 59.8404 46.1049 57.2275H53.9002ZM34.7692 49.9999C34.7704 48.4884 34.9977 46.9857 35.4435 45.5414H42.5202C41.9645 48.4877 41.9645 51.512 42.5202 54.4583H35.4435C34.9977 53.0141 34.7704 51.5113 34.7692 49.9999ZM46.1049 42.7722C47.0032 40.1589 48.321 37.7093 50.0067 35.5197C51.69 37.7096 53.005 40.1592 53.9002 42.7722H46.1049ZM57.4905 45.5414H64.5672C65.4608 48.4466 65.4608 51.5532 64.5672 54.4583H57.4836C58.0411 51.5121 58.0411 48.4876 57.4836 45.5414H57.4905ZM63.4083 42.7722H56.8314C56.0059 40.037 54.7581 37.4475 53.1332 35.0974C55.2984 35.5566 57.3381 36.4808 59.111 37.8059C60.884 39.1311 62.3479 40.8256 63.4014 42.7722H63.4083ZM46.8665 35.0974C45.241 37.4474 43.9928 40.0369 43.1668 42.7722H36.5968C37.6505 40.8254 39.1145 39.1307 40.8877 37.8055C42.6609 36.4804 44.7009 35.5563 46.8665 35.0974ZM36.5968 57.2275H43.1668C43.9928 59.9628 45.241 62.5524 46.8665 64.9024C44.7009 64.4434 42.6609 63.5193 40.8877 62.1942C39.1145 60.869 37.6505 59.1743 36.5968 57.2275ZM53.1332 64.9024C54.7581 62.5523 56.0059 59.9628 56.8314 57.2275H63.4014C62.3479 59.1741 60.884 60.8686 59.111 62.1938C57.3381 63.519 55.2984 64.4431 53.1332 64.9024Z" fill="#6854FC"/>
</svg>
