<svg width="60" height="60" viewBox="0 0 60 60" fill="none" xmlns="http://www.w3.org/2000/svg">
<rect width="60" height="60" rx="20" fill="#BED3FF"/>
<path d="M23.7498 23.7957C24.8968 23.7957 25.8267 22.8695 25.8267 21.7269C25.8267 20.5844 24.8968 19.6582 23.7498 19.6582C22.6027 19.6582 21.6729 20.5844 21.6729 21.7269C21.6729 22.8695 22.6027 23.7957 23.7498 23.7957Z" fill="#2555BB"/>
<path d="M36.7309 26.3818C35.492 26.3833 34.3043 26.8742 33.4282 27.7468C32.5522 28.6194 32.0594 29.8024 32.0578 31.0365V38.5356C32.0578 39.5643 31.6476 40.5509 30.9172 41.2784C30.1869 42.0058 29.1964 42.4145 28.1636 42.4145C27.1308 42.4145 26.1403 42.0058 25.41 41.2784C24.6797 40.5509 24.2694 39.5643 24.2694 38.5356V36.0361L26.8655 35.1739V34.1396H20.6348V35.1739L23.2309 36.0361V38.5356C23.2309 39.8387 23.7506 41.0884 24.6757 42.0098C25.6007 42.9312 26.8554 43.4488 28.1636 43.4488C29.4718 43.4488 30.7265 42.9312 31.6516 42.0098C32.5766 41.0884 33.0963 39.8387 33.0963 38.5356V31.0365C33.0963 30.0763 33.4792 29.1555 34.1609 28.4766C34.8425 27.7976 35.767 27.4162 36.7309 27.4162C37.6949 27.4162 38.6194 27.7976 39.301 28.4766C39.9826 29.1555 40.3655 30.0763 40.3655 31.0365V34.7033C40.7089 34.6412 41.0606 34.6412 41.404 34.7033V31.0365C41.4025 29.8024 40.9097 28.6194 40.0336 27.7468C39.1576 26.8742 37.9698 26.3833 36.7309 26.3818Z" fill="#2555BB"/>
<path d="M41.4043 34.7031V38.2768H44.0005V37.7597C43.9997 37.0269 43.7386 36.318 43.2635 35.7586C42.7883 35.1991 42.1297 34.8253 41.4043 34.7031Z" fill="#2555BB"/>
<path d="M37.7686 41.8969C37.7686 42.7199 38.0968 43.5092 38.681 44.0912C39.2653 44.6731 40.0577 45 40.8839 45C41.7102 45 42.5026 44.6731 43.0868 44.0912C43.6711 43.5092 43.9993 42.7199 43.9993 41.8969V39.311H37.7686V41.8969Z" fill="#2555BB"/>
<path d="M37.7686 37.7597V38.2768H40.3647V34.7031C39.6393 34.8253 38.9807 35.1991 38.5055 35.7586C38.0304 36.318 37.7693 37.0269 37.7686 37.7597Z" fill="#2555BB"/>
<path d="M26.8655 32.0703H20.6348V33.1047H26.8655V32.0703Z" fill="#2555BB"/>
<path d="M20.6346 30.0017V31.0361H23.2308V24.7834C22.4605 24.6537 21.7673 24.2405 21.2885 23.6258C20.8097 23.011 20.5802 22.2395 20.6455 21.4642C20.7109 20.6889 21.0662 19.9662 21.6412 19.4396C22.2162 18.9129 22.9688 18.6206 23.75 18.6206C24.5312 18.6206 25.2838 18.9129 25.8588 19.4396C26.4338 19.9662 26.7891 20.6889 26.8545 21.4642C26.9198 22.2395 26.6903 23.011 26.2115 23.6258C25.7327 24.2405 25.0395 24.6537 24.2692 24.7834V31.0361H26.8654V29.4272C26.8585 28.9553 26.957 28.4878 27.1536 28.0585C27.3503 27.6292 27.6402 27.2488 28.0025 26.9447C29.0857 26.0694 29.8701 24.8815 30.2478 23.5441C30.6255 22.2067 30.578 20.7857 30.1118 19.4763C29.6457 18.1669 28.7837 17.0335 27.6445 16.2319C26.5053 15.4304 25.1448 15 23.75 15C22.3552 15 20.9947 15.4304 19.8555 16.2319C18.7163 17.0335 17.8543 18.1669 17.3882 19.4763C16.922 20.7857 16.8745 22.2067 17.2522 23.5441C17.6299 24.8815 18.4143 26.0694 19.4975 26.9447C19.8598 27.2488 20.1497 27.6292 20.3464 28.0585C20.543 28.4878 20.6415 28.9553 20.6346 29.4272V30.0017Z" fill="#2555BB"/>
</svg>
