<svg width="65" height="65" viewBox="0 0 65 65" fill="none" xmlns="http://www.w3.org/2000/svg">
<g clip-path="url(#clip0_179_1249)">
<path d="M46.5494 24.5412C45.5315 24.9915 44.452 25.2872 43.3467 25.4186C44.5117 24.7218 45.3837 23.6253 45.8001 22.3332C44.7067 22.9839 43.5081 23.4399 42.2587 23.6866C41.4195 22.7887 40.3072 22.1932 39.0947 21.9927C37.8821 21.7922 36.6373 21.9979 35.5538 22.5778C34.4702 23.1578 33.6086 24.0795 33.1029 25.1996C32.5972 26.3198 32.4757 27.5756 32.7574 28.7719C30.5402 28.6608 28.3712 28.0846 26.3911 27.0808C24.4111 26.077 22.6642 24.668 21.2641 22.9452C20.7685 23.7965 20.508 24.7642 20.5094 25.7492C20.5094 27.6826 21.4934 29.3906 22.9894 30.3906C22.1041 30.3627 21.2382 30.1236 20.4641 29.6932V29.7626C20.4643 31.0502 20.9099 32.2981 21.7252 33.2946C22.5405 34.2912 23.6754 34.9752 24.9374 35.2306C24.1156 35.4533 23.2538 35.4861 22.4174 35.3266C22.7732 36.4349 23.4667 37.4042 24.4009 38.0987C25.335 38.7933 26.4629 39.1783 27.6267 39.1999C26.47 40.1083 25.1456 40.7799 23.7292 41.1761C22.3128 41.5724 20.8322 41.6856 19.3721 41.5092C21.921 43.1485 24.8882 44.0187 27.9187 44.0159C38.1761 44.0159 43.7854 35.5186 43.7854 28.1492C43.7854 27.9092 43.7787 27.6666 43.7681 27.4292C44.8599 26.6401 45.8022 25.6626 46.5507 24.5426L46.5494 24.5412Z" fill="white"/>
</g>
<rect opacity="0.1" width="65" height="65" rx="20" fill="#F2F2F2"/>
<defs>
<clipPath id="clip0_179_1249">
<rect width="32" height="32" fill="white" transform="translate(17 17)"/>
</clipPath>
</defs>
</svg>
