<svg width="100" height="100" viewBox="0 0 100 100" fill="none" xmlns="http://www.w3.org/2000/svg">
<circle cx="50" cy="50" r="50" fill="#F0EEFF"/>
<path d="M59.9507 34.7879L58.602 36.1366C58.3927 36.357 58.0022 36.3785 57.7606 36.1366C57.5277 35.904 57.5277 35.5279 57.7606 35.2953L59.1093 33.9465C59.3419 33.7138 59.718 33.7138 59.9566 33.9465C60.1894 34.1793 60.1894 34.5553 59.9507 34.7879Z" fill="#6854FC"/>
<path d="M61.8955 38.9234C61.8835 39.2456 61.621 39.4963 61.2987 39.4963H61.2748L59.3711 39.4186C59.0429 39.4008 58.7863 39.1262 58.7983 38.7921C58.8102 38.4758 59.0727 38.2251 59.395 38.2251H59.4189L61.3226 38.3028C61.6568 38.3147 61.9074 38.5952 61.8955 38.9234Z" fill="#6854FC"/>
<path d="M55.5934 32.5738L55.671 34.4775C55.6889 34.8057 55.4323 35.0862 55.104 35.0981H55.0742C54.7579 35.0981 54.4954 34.8475 54.4834 34.5252L54.3998 32.6216C54.3879 32.2933 54.6446 32.0128 54.9728 32.0009C55.3069 31.983 55.5815 32.2396 55.5934 32.5738Z" fill="#6854FC"/>
<path d="M51.7907 47.9361L45.9611 42.1071L46.7515 37.2404L56.6593 47.1482L51.7907 47.9361ZM58.8629 46.7913L58.1122 46.9128L46.9873 35.7885L47.1094 35.0369C47.1874 34.5566 47.7764 34.3665 48.1204 34.7106L59.1896 45.7802C59.5337 46.1244 59.3434 46.7136 58.8629 46.7913ZM56.4367 37.4652C57.5912 38.6197 57.717 40.4193 56.816 41.7184L52.1788 37.0811C53.4784 36.1813 55.2804 36.3095 56.4367 37.4652ZM42.4049 53.3409C41.8955 53.8497 41.0656 53.8508 40.5563 53.3409C40.0463 52.831 40.0463 52.0017 40.5563 51.4917L41.4852 50.5628C41.545 50.6225 43.4526 52.5296 43.3344 52.4114L42.4049 53.3409ZM45.3818 52.7709C43.978 51.3674 42.6993 50.0889 41.1257 48.5154C40.8063 48.1961 40.8063 47.6756 41.1257 47.3557L45.3241 43.1579L50.7393 48.5731C45.0292 54.2824 52.1834 47.1292 46.5409 52.7709C46.2309 53.0804 45.6924 53.0816 45.3818 52.7709ZM55.0683 55.83C54.6964 55.458 56.6214 57.3867 50.121 50.8768C49.6555 51.3422 48.3247 52.6731 48.265 52.7328L53.2182 57.68C53.7255 58.1933 54.555 58.1933 55.0683 57.68C55.5815 57.1727 55.5815 56.3373 55.0683 55.83Z" fill="#6854FC"/>
<path d="M32 63.1211V64.266C32 65.8618 33.2952 67.157 34.8911 67.157H66.1089C67.7048 67.157 69 65.8618 69 64.266V63.1211C67.9658 63.1211 74.3827 63.1211 32 63.1211Z" fill="#6854FC"/>
<path d="M65.8105 40.2603H58.5776C58.506 41.0062 58.2494 41.7463 57.7958 42.3967L57.6764 42.5757L58.3449 43.2441H64.5811V58.9453H55.3491C54.6195 59.3519 53.6939 59.3664 52.9381 58.9453H36.4194V43.2441H43.5449L44.7623 42.0268L45.0487 40.2603H35.19C34.2233 40.2603 33.4355 41.0421 33.4355 42.0088V61.9292H67.565V42.0088C67.565 41.0421 66.7772 40.2603 65.8105 40.2603Z" fill="#6854FC"/>
</svg>
