<svg width="65" height="65" viewBox="0 0 65 65" fill="none" xmlns="http://www.w3.org/2000/svg">
<g clip-path="url(#clip0_179_1250)">
<path d="M45.7243 25.6637C46.3337 28.0397 46.3337 32.9997 46.3337 32.9997C46.3337 32.9997 46.3337 37.9597 45.7243 40.3357C45.3857 41.649 44.395 42.6823 43.1403 43.0317C40.8617 43.6663 33.0003 43.6663 33.0003 43.6663C33.0003 43.6663 25.143 43.6663 22.8603 43.0317C21.6003 42.677 20.611 41.645 20.2763 40.3357C19.667 37.9597 19.667 32.9997 19.667 32.9997C19.667 32.9997 19.667 28.0397 20.2763 25.6637C20.615 24.3503 21.6057 23.317 22.8603 22.9677C25.143 22.333 33.0003 22.333 33.0003 22.333C33.0003 22.333 40.8617 22.333 43.1403 22.9677C44.4003 23.3223 45.3897 24.3543 45.7243 25.6637ZM30.3337 37.6663L38.3337 32.9997L30.3337 28.333V37.6663Z" fill="white"/>
</g>
<rect opacity="0.1" width="65" height="65" rx="20" fill="#F2F2F2"/>
<defs>
<clipPath id="clip0_179_1250">
<rect width="32" height="32" fill="white" transform="translate(17 17)"/>
</clipPath>
</defs>
</svg>
